<svg width="616.64" height="735.84" version="1.1" viewBox="0 0 616.64 735.84" xml:space="preserve" xmlns="http://www.w3.org/2000/svg"><g transform="translate(-212.64 -31.2)"><g transform="matrix(.091961 0 0 .083912 11.449 10.002)"><text transform="translate(4255.7 1079.2)" fill="#000000" font-family="F2" font-size="327.68px"><tspan x="0 183.50079 350.61758 511.18079 665.19037 747.11041 914.22717 1097.728 1274.6752 1451.6223 1687.552 1887.4368 1972.6335 2120.0896 2221.6704 2385.5103" y="0" font-family="Calibri">BeagleBoneAI -64</tspan></text></g><g transform="matrix(.045981 0 0 .041956 17.507 -1.9983)"><text transform="translate(11156 9625.3)" fill="#ffffff" font-family="F7" font-size="327.68px"><tspan x="0 176.94719" y="0">oo</tspan></text></g><g transform="translate(17.507 -1.9983)"><path d="m634.37 354.54v102.62h63.51v-102.62z" fill="#d0cece" fill-rule="evenodd"/><path d="m634.37 354.54h63.51v102.62h-63.51z" fill="none" stroke="#000" stroke-miterlimit="8" stroke-width="1.055"/></g><g transform="matrix(0 -.023496 .025748 0 17.507 -1.9983)" fill="#000000" font-family="Calibri" font-size="327.68px"><text transform="translate(-19312,25981)"><tspan x="0 157.28639 308.0192 484.9664 645.5296 822.47681 960.10236 1035.4688 1218.9696 1395.9167 1451.6223 1661.3375 1825.1776 1989.0176 2165.9648 2336.3584 2451.0464 2500.1982 2595.2256 2785.28 2968.7808 3158.8352 3221.0942 3391.488 3555.3279 3637.2478 3807.6416 3971.4814" y="0">Expansion Header (BBB P8 P9)</tspan></text><text transform="translate(-17855 26372)"><tspan x="0 163.84 314.57278 396.4928 557.05597 720.896 891.28955 966.65601" y="0">2x 46Pin</tspan></text></g><g transform="translate(17.507 -1.9983)" fill="#8be3c9" stroke="#000"><path d="m422.98 212.8v504.74h175.63v-504.74z" fill="#8be3c9" fill-rule="evenodd" stroke="#000"/></g><g transform="matrix(.061308 0 0 .055941 17.507 -1.9983)" fill="#000000" font-family="Calibri" font-size="327.68px"><text transform="translate(7727.5 8231.5)"><tspan x="0 160.5632 363.72479 563.60956 730.72638 924.05756" y="0">TDA4VM</tspan></text><text transform="translate(8080 8626.2)"><tspan x="0 154.0096 330.95679" y="0">SoC</tspan></text></g><g transform="translate(17.507 -1.9983)"><path d="m299.08 590.72v27.15h91.91v-27.15z" fill="#d6dce5" fill-rule="evenodd"/><path d="m299.08 590.72h91.91v27.15h-91.91z" fill="none" stroke="#000" stroke-miterlimit="8" stroke-width="1.055"/></g><g transform="matrix(.025749 0 0 .023495 17.507 -1.9983)"><text transform="translate(12465 25660)" fill="#000000" font-family="Calibri" font-size="327.68px"><tspan x="0 137.6256 311.29599 511.18079 714.34241 894.56641 1055.1295 1110.8352 1212.416 1379.5327 1589.2479 1769.4719" y="0">LPDDR4 (4GB)</tspan></text></g><g transform="matrix(.023297 0 0 .021258 17.507 -1.9983)"><text transform="translate(13379 28752)" fill="#000000" font-family="Calibri" font-size="327.68px"><tspan x="0 219.54559 383.38559 550.50238 714.34241 878.18237 1051.8528 1333.6576 1497.4976 1792.4095 1998.8479 2205.2864 2369.1265 2549.3503 2650.9312" y="0">Q3222PM1WDGTK-U</tspan></text></g><g transform="translate(17.507 -1.9983)"><path d="m325.79 293.42v25.58h66.44v-25.58z" fill="#d6dce5" fill-rule="evenodd"/><path d="m325.79 293.42h66.44v25.58h-66.44z" fill="none" stroke="#000" stroke-miterlimit="8" stroke-width="1.042"/></g><g transform="matrix(.025749 0 0 .023495 17.507 -1.9983)" fill="#000000" font-family="Calibri" font-size="327.68px"><text transform="translate(13036 12952)"><tspan x="0 167.11679 330.95679 504.6272 684.8512 901.12 1173.0944 1225.5232 1392.64 1559.7567 1733.4271 1815.3472" y="0">EEPROM 4Kbit</tspan></text><text transform="translate(12887 13340)"><tspan x="0 167.11679 330.95679 478.41278 652.08319 812.64636 976.48639 1179.6479 1336.9343 1435.2384 1523.7119 1648.2303 1871.0527" y="0">24FC04HT-I/OT</tspan></text></g><g transform="translate(17.507 -1.9983)"><path d="m299.2 624.06v28.18h91.26v-28.18z" fill="#bfbfbf" fill-rule="evenodd"/><path d="m299.2 624.06h91.26v28.18h-91.26z" fill="none" stroke="#000" stroke-miterlimit="8" stroke-width="1.055"/></g><g transform="matrix(.025749 0 0 .023495 17.507 -1.9983)" fill="#000000" font-family="Calibri" font-size="327.68px"><text transform="translate(12794 27076)"><tspan x="0 278.52798 360.448 498.07358 616.03839 789.7088 845.41437 989.59357" y="0">Micro SD</tspan></text><text transform="translate(12396 27471)"><tspan x="0 173.67039 311.29599 471.85919 638.97601 802.81598 907.67358 1068.2368 1228.7999 1399.1936 1497.4976 1658.0608 1828.4543" y="0">YL004-030-001</tspan></text><text transform="translate(21469 10024)"><tspan x="0 278.52798 452.19839 665.19037 825.7536 1005.9776 1218.9696 1497.4976 1579.4176" y="0">MCU_RGMII</tspan></text></g><g transform="translate(17.507 -1.9983)"><path d="m712.97 219.88v26.16h56.1v-26.16z" fill="#bfbfbf" fill-rule="evenodd"/><path d="m712.97 219.88h56.1v26.16h-56.1z" fill="none" stroke="#000" stroke-miterlimit="8" stroke-width="1.055"/></g><g transform="matrix(.025749 0 0 .023495 17.507 -1.9983)" fill="#000000" font-family="Calibri" font-size="327.68px"><text transform="translate(28068 9833.4)"><tspan x="0 160.5632 304.7424 380.1088 560.33276 665.19037 825.7536 989.59357 1068.2368 1304.1664 1428.6848" y="0">1x RJ45 w/ </tspan></text><text transform="translate(28093 10222)"><tspan x="0 278.52798 435.81439 589.82397 763.49438 927.33435 1038.7456 1110.8352 1255.0144" y="0">Magnetics</tspan></text><text transform="translate(16554 25816)"><tspan x="0 206.4384 403.04639 583.27039" y="0">DDR0</tspan></text><text transform="translate(16504 27192)"><tspan x="0 278.52798 560.33276 734.00317" y="0">MMC1</tspan></text><text transform="translate(22140 24815)"><tspan x="0 173.67039 324.4032 409.60001 589.82397 756.9408" y="0">CSIRX1</tspan></text></g><g transform="translate(17.507 -1.9983)"><path d="m238.54 518.32v28.2h69.68v-28.2z" fill="#bfbfbf" fill-rule="evenodd"/><path d="m238.54 518.32h69.68v28.2h-69.68z" fill="none" stroke="#000" stroke-miterlimit="8" stroke-width="1.055"/></g><g transform="matrix(.025749 0 0 .023495 17.507 -1.9983)"><text transform="translate(9718.4 22582)" fill="#000000" font-family="Calibri" font-size="327.68px"><tspan x="0 285.0816 360.448 534.11841 609.4848 665.19037 868.35199 1038.7456 1110.8352 1281.2288 1454.8992 1628.5696" y="0">Mini DP Conn</tspan></text></g><g transform="matrix(.023297 0 0 .021258 17.507 -1.9983)"><text transform="translate(10405 25388)" fill="#000000" font-family="Calibri" font-size="327.68px"><tspan x="0 163.84 357.1712 638.97601 802.81598 969.9328 1133.7728 1297.6128 1461.4528 1566.3104 1772.7488 1936.5887 2093.8752 2260.9919 2362.5728 2526.4128" y="0">3VM11201-D730-7H</tspan></text></g><g transform="matrix(.025749 0 0 .023495 17.507 -1.9983)" fill="#000000" font-family="Calibri" font-size="327.68px"><text transform="translate(16460 20498)"><tspan x="0 285.0816 566.88641 734.00317" y="0">MMC2</tspan></text><text transform="translate(22488 11454)"><tspan x="0 98.304001 255.59039 442.36798" y="0">JTAG</tspan></text></g><g transform="translate(17.507 -1.9983)"><path d="m634.49 253.42v22.18h67.88v-22.18z" fill="#d9d9d9" fill-rule="evenodd"/><path d="m634.49 253.42h67.88v22.18h-67.88z" fill="none" stroke="#000" stroke-miterlimit="8" stroke-width="1.055"/></g><g transform="matrix(.025749 0 0 .023495 17.507 -1.9983)" fill="#000000" font-family="Calibri" font-size="327.68px"><text transform="translate(25116 11175)"><tspan x="0 160.5632 324.4032 484.9664 583.27039 750.38721 930.61121 1110.8352 1291.0592 1448.3456 1589.2479" y="0">Tag-Connect</tspan></text><text transform="translate(25582 11563)"><tspan x="0 160.5632 327.67999 498.07358 576.7168" y="0">10Pin</tspan></text></g><g transform="translate(619.38 363.76)"><path d="m0 0h29.64v-0.78h-29.64zm0.86-2.68-3.37 2.29 3.37 2.29zm27.95 4.58 3.34-2.29-3.34-2.29z" stroke="#000" stroke-linejoin="round" stroke-miterlimit="10" stroke-width=".025"/></g><g transform="translate(619.84 375.56)"><path d="m0 0h29.64v-0.78h-29.64zm0.86-2.68-3.37 2.29 3.37 2.29zm27.95 4.58 3.34-2.29-3.34-2.29z" stroke="#000" stroke-linejoin="round" stroke-miterlimit="10" stroke-width=".025"/></g><g transform="translate(17.507 -1.9983)"><path d="m337.78 662.73v22.5h52.2v-22.5z" fill="#fbe5d6" fill-rule="evenodd"/><path d="m337.78 662.73h52.2v22.5h-52.2z" fill="none" stroke="#000" stroke-miterlimit="8" stroke-width="1.055"/></g><g transform="matrix(.025749 0 0 .023495 17.507 -1.9983)" fill="#000000" font-family="Calibri" font-size="327.68px"><text transform="translate(13652 28601)"><tspan x="0 173.67039 285.0816 435.81439 560.33276 671.74396 825.7536" y="0">Crystal</tspan></text><text transform="translate(13503 28996)"><tspan x="0 167.11679 327.67999 416.15359 576.7168 858.52161 1061.6832" y="0">19.2MHz</tspan></text><text transform="translate(16504 28792)"><tspan x="0 285.0816 458.75198 671.74396 845.41437 1005.9776 1225.5232 1372.9791 1546.6495" y="0">WKUP_OSCO</tspan></text></g><g transform="translate(410.86 635.64)"><path d="m0 0h26.29v-0.78h-26.29zm0.83-2.68-3.34 2.29 3.34 2.3zm24.63 4.59 3.34-2.3-3.34-2.29z" stroke="#000" stroke-linejoin="round" stroke-miterlimit="10" stroke-width=".025"/></g><g transform="translate(17.507 -1.9983)"><path d="m333.34 241.84v31.22h51.91v-31.22z" fill="#deebf7" fill-rule="evenodd"/><path d="m333.34 241.84h51.91v31.22h-51.91z" fill="none" stroke="#000" stroke-miterlimit="8" stroke-width="1.042"/><path d="m336.65 245.05v29.23h55.76v-29.23z" fill="#deebf7" fill-rule="evenodd"/><path d="m336.65 245.05h55.76v29.23h-55.76z" fill="none" stroke="#000" stroke-miterlimit="8" stroke-width="1.042"/></g><g transform="matrix(.028201 0 0 .025733 15.646 -2.2283)"><text transform="translate(12624 10203)" fill="#000000" font-family="Calibri" font-size="327.68px"><tspan x="0 170.3936 458.75198 543.94879" y="0">PMIC</tspan></text></g><g transform="translate(17.507 -1.9983)"><path d="m392.1 309.01h8.3" fill="none" stroke="#000" stroke-miterlimit="8" stroke-width=".841"/></g><g transform="translate(421.29 287.42)"><path d="m0 0h16.32v0.77h-16.32zm0.83 2.67-3.34-2.29 3.34-2.3zm14.67-4.59 3.34 2.3-3.34 2.29z" stroke="#000" stroke-linejoin="round" stroke-miterlimit="10" stroke-width=".013"/></g><g transform="translate(17.507 -1.9983)"><path d="m400.72 269.62v39.804" fill="none" stroke="#000" stroke-miterlimit="8" stroke-width=".841"/></g><g transform="matrix(.025749 0 0 .023495 17.507 -1.9983)"><text transform="translate(16485 12469)" fill="#000000" font-family="Calibri" font-size="327.68px"><tspan x="0 291.63519 465.3056 671.74396 845.41437 1005.9776 1094.4512 1261.568 1428.6848" y="0">WKUP_I2C0</tspan></text></g><g transform="translate(411.49 602.21)"><path d="m0 0h26.76v-0.75h-26.76zm0.82-2.65-3.34 2.29 3.34 2.29zm25.12 4.58 3.34-2.29-3.34-2.29z" stroke="#000" stroke-linejoin="round" stroke-miterlimit="10" stroke-width=".025"/></g><g transform="translate(17.507 -1.9983)"><path d="m323.71 386.11v54.92h68.11v-54.92z" fill="#deebf7" fill-rule="evenodd"/><path d="m323.71 386.11h68.11v54.92h-68.11z" fill="none" stroke="#000" stroke-miterlimit="8" stroke-width="1.055"/></g><g transform="matrix(.026975 0 0 .024614 17.507 -1.9983)" fill="#000000" font-family="Calibri" font-size="327.68px"><text transform="translate(12462 16524)"><tspan x="0 206.4384 357.1712 534.11841 701.23517 776.60156 943.71838 1025.6384 1228.7999 1435.2384" y="0">USB3.0 HUB</tspan></text><text transform="translate(12580 16914)"><tspan x="0 160.5632 380.1088 534.11841 717.6192 884.73596 1048.5759 1209.1392" y="0">TUSB8041</tspan></text><text transform="translate(12883 17304)"><tspan x="0 167.11679 235.9296 350.61758 527.56476 606.20801" y="0">1 to 4</tspan></text></g><g transform="translate(17.507 -1.9983)"><path d="m236.8 400.48v31.29h69.99v-31.29z" fill="#bfbfbf" fill-rule="evenodd"/><path d="m236.8 400.48h69.99v31.29h-69.99z" fill="none" stroke="#000" stroke-miterlimit="8" stroke-width="1.055"/></g><g transform="matrix(.023297 0 0 .021258 17.507 -1.9983)" fill="#000000" font-family="Calibri" font-size="327.68px"><text transform="translate(10522 19494)"><tspan x="0 163.84 301.46561 475.13599 632.42236 802.81598 933.888 1002.7008 1173.0944 1340.2112 1386.0864 1599.0784 1759.6416 1916.928 2087.3215 2251.1616 2362.5728" y="0">Expansion Header </tspan></text><text transform="translate(11428 19886)"><tspan x="0 163.84" y="0">P9</tspan></text><text transform="translate(13578 15580)"><tspan x="0 206.4384 350.61758 527.56476 694.68158 783.15521 946.99518 1114.1119 1317.2736 1461.4528 1628.5696" y="0">USB2.0_HS_1</tspan></text></g><g transform="matrix(.025749 0 0 .023495 17.507 -1.9983)" fill="#000000" font-size="327.68px"><text transform="translate(16510 17529)" font-family="Calibri"><tspan x="0 209.71519 360.448 540.672" y="0">USB1</tspan></text><text transform="translate(16510 10303)" font-family="F7" letter-spacing="0px" word-spacing="0px"><tspan x="0 150.7328 311.29599 491.51999 688.12799 858.52161 1005.9776 1166.5408 1268.1216 1435.2384 1572.864" y="0" dx="0" font-family="Calibri">SERDES3(2L)</tspan></text><text transform="translate(16485 9956)" font-family="F7"><tspan x="0 212.99199 360.448 540.672 701.23517" y="0" font-family="Calibri">USB0 </tspan></text></g><g transform="translate(17.507 -1.9983)"><path d="m318.93 145.64v34.6h63.65v-34.6z" fill="#d9d9d9" fill-rule="evenodd"/><path d="m318.93 145.64h63.65v34.6h-63.65z" fill="none" stroke="#000" stroke-miterlimit="8" stroke-width="1.042"/></g><g transform="matrix(.025749 0 0 .023495 17.507 -1.9983)"><text transform="translate(12875,6660)" fill="#000000" font-family="Calibri" font-size="327.68px"><tspan x="0 209.71519 360.448 534.11841 609.4848 763.49438 920.78076 1094.4512 1255.0144 1323.8271" y="0">USB TYPE C</tspan></text></g><g transform="matrix(.025749 0 0 .023495 14.973 -1.9983)"><text transform="translate(12981 7048.2)" fill="#000000" font-family="Calibri" font-size="327.68px"><tspan x="0 167.11679 360.448 429.2608 596.37756 789.7088 868.35199 1087.8976 1268.1216 1343.4879" y="0">5V 3A Only</tspan></text></g><g transform="matrix(.025749 0 0 .023495 17.594 -1.9983)"><text transform="translate(13136 7436.3)" fill="#000000" font-family="Calibri" font-size="327.68px"><tspan x="0 209.71519 367.00159 560.33276 720.896 806.09277" y="0">USB3.0</tspan></text></g><g transform="matrix(.025749 0 0 .023495 17.507 -1.9983)"><text transform="translate(9917.3 6026.7)" fill="#000000" font-family="Calibri" font-size="327.68px"><tspan x="0 173.67039 340.7872 576.7168 740.55676 858.52161 920.78076 1005.9776 1179.6479 1346.7648 1523.7119 1635.1232 1697.3823" y="0">Power Input 1</tspan></text></g><g transform="translate(17.507 -1.9983)"><path d="m247.17 194.79v31.52h59.92v-31.52z" fill="#deebf7" fill-rule="evenodd"/><path d="m247.17 194.79h59.92v31.52h-59.92z" fill="none" stroke="#000" stroke-miterlimit="8" stroke-width="1.042"/></g><g transform="matrix(.025749 0 0 .023495 17.507 -1.9983)"><text transform="translate(9973.1 8682.6)" fill="#000000" font-family="Calibri" font-size="327.68px"><tspan x="0 167.11679 340.7872 576.7168 740.55676 858.52161 920.78076 1199.3087 1409.0239" y="0">Power MUX</tspan></text></g><g transform="matrix(.025749 0 0 .023495 17.732 -1.9983)"><text transform="translate(10191 9077.6)" fill="#000000" font-family="Calibri" font-size="327.68px"><tspan x="0 160.5632 334.23358 491.51999 652.08319 819.20001 983.03998 1143.6031" y="0">TPS2121 </tspan></text></g><g transform="matrix(.025749 0 0 .023495 17.919 -1.9983)"><text transform="translate(10085 9465.8)" fill="#000000" font-family="Calibri" font-size="327.68px"><tspan x="0 167.11679 255.59039 416.15359 609.4848 688.12799 976.48639 1173.0944" y="0">4.5A MAX</tspan></text></g><g transform="translate(407.49 671.59)"><path d="m0 0h30.87v0.78h-30.87zm30.01-1.9 3.37 2.29-3.37 2.29z" stroke="#000" stroke-linejoin="round" stroke-miterlimit="10" stroke-width=".025"/></g><g transform="translate(17.507 -1.9983)"><path d="m392.68 269.83h8.31" fill="none" stroke="#000" stroke-miterlimit="8" stroke-width=".841"/></g><g transform="translate(409.99 253.01)"><path d="m0 0h25.72v-0.95h-25.72zm24.87 1.83 5.03-2.29-5.03-2.3z" stroke="#000" stroke-linejoin="round" stroke-miterlimit="10" stroke-width=".013"/></g><g transform="matrix(.025749 0 0 .023495 17.507 -1.9983)"><text transform="translate(15410 11127)" fill="#000000" font-family="F7" font-size="327.68px"><tspan x="0 150.7328 324.4032 498.07358 665.19037 747.11041" y="0" font-family="Calibri">Supply</tspan></text></g><g transform="translate(728.02 229.95)"><path d="m0 0h-9.22v-0.75h9.22zm-0.83-2.65 3.34 2.29-3.34 2.29zm-7.56 4.58-3.34-2.29 3.34-2.29z" stroke="#000" stroke-linejoin="round" stroke-miterlimit="10" stroke-width=".025"/></g><g transform="translate(17.507 -1.9983)"><path d="m462.79 153.1v33.04h100.85v-33.04z" fill="#e2c3eb" fill-rule="evenodd"/><path d="m462.79 153.1h100.85v33.04h-100.85z" fill="none" stroke="#000" stroke-miterlimit="8" stroke-width="1.042"/></g><g transform="matrix(.025749 0 0 .023495 17.507 -1.9983)"><text transform="translate(18213 7150.4)" fill="#000000" font-family="Calibri" font-size="327.68px"><tspan x="0 186.7776 367.00159 547.22559 665.19037 714.34241 1005.9776 1186.2015 1366.4255 1530.2656 1589.2479 1766.1952 1946.4192 2120.0896 2224.9473 2300.3135 2454.3232 2634.5471 2752.512 2913.0752 3024.4863 3106.4062 3273.5232" y="0">Boot Mode Configuration</tspan></text></g><g transform="matrix(.024523 0 0 .022377 17.507 -1.9983)"><text transform="translate(19162 7901.1)" fill="#000000" font-family="Calibri" font-size="327.68px"><tspan x="0 176.94719 347.34079 416.15359 494.79678 593.10077 802.81598 979.76318 1032.192 1205.8624 1376.256 1448.3456 1526.9888 1625.2927 1828.4543 2002.1248 2238.0544 2408.448 2460.8767 2634.5471 2804.9407 2936.0127 3008.1023 3139.1743 3244.032 3417.7024" y="0">Pull-Up Pull-Down Resistor</tspan></text></g><g transform="translate(559.34 184.6)"><path d="m0 0v24.72h0.84v-24.72zm-2.09 23.95 2.51 3.06 2.51-3.06z" stroke="#000" stroke-linejoin="round" stroke-miterlimit="10" stroke-width=".013"/></g><g transform="matrix(.025749 0 0 .023495 17.507 -1.9983)" fill="#000000" font-size="327.68px"><text transform="translate(17262 9452.2)" font-family="F7"><tspan x="0 150.7328 304.7424 452.19839 622.59198 796.26239 1019.0848 1235.3535 1392.64 1671.168 1887.4368 2093.8752" y="0" font-family="Calibri">SYS_BOOTMODE</tspan></text><text transform="translate(22016 6877.9)" font-family="Calibri"><tspan x="0 278.52798 452.19839 665.19037 825.7536 1005.9776 1225.5232 1441.792 1595.8015 1884.1599 2100.4287 2300.3135 2467.4304 2627.9937" y="0">MCU_BOOTMODE03</tspan></text></g><g transform="translate(17.507 -1.9983)"><path d="m246.46 242.77v31.51h68.26v-31.51z" fill="#deebf7" fill-rule="evenodd"/><path d="m246.46 242.77h68.26v31.51h-68.26z" fill="none" stroke="#000" stroke-miterlimit="8" stroke-width="1.042"/></g><g transform="matrix(.025749 0 0 .023495 17.424 -1.9983)"><text transform="translate(10222 10719)" fill="#000000" font-family="Calibri" font-size="327.68px"><tspan x="0 180.224 389.93918 566.88641 734.00317 806.09277 983.03998 1150.1567 1359.8719" y="0">BUCK REG </tspan></text></g><g transform="matrix(.025749 0 0 .023495 17.946 -1.9983)"><text transform="translate(10495 11107)" fill="#000000" font-family="Calibri" font-size="327.68px"><tspan x="0 104.8576 268.6976 353.89438 514.45758 701.23517" y="0">(3.3V)</tspan></text></g><g transform="matrix(.026975 0 0 .024614 17.507 -1.9983)"><text transform="translate(9508,10992)" fill="#000000" font-family="Calibri" font-size="327.68px"><tspan x="0 137.6256 422.70718 586.54718 747.11041 914.22717 1078.0671 1264.8447 1471.2832 1631.8463" y="0">LM5141RGET</tspan></text></g><g transform="matrix(.025749 0 0 .023495 17.507 -1.9983)"><text transform="translate(16510 18060)" fill="#000000" font-family="Calibri" font-size="327.68px"><tspan x="0 150.7328 317.84958 491.51999 694.68158 858.52161 1005.9776 1173.0944 1235.3535 1336.9343 1497.4976 1641.6768" y="0">SERDES2 (1L)</tspan></text></g><g transform="matrix(.023297 0 0 .021258 17.507 -1.9983)"><text transform="translate(13612 12073)" fill="#000000" font-family="Calibri" font-size="327.68px"><tspan x="0 157.28639 245.75999 412.8768" y="0">3.3V</tspan></text></g><g transform="translate(286 178.58)"><path d="m0 0v9.7h1.06v-9.7zm-1.98 8.93 2.51 4.58 2.51-4.58z" stroke="#000" stroke-linejoin="round" stroke-miterlimit="10" stroke-width=".013"/></g><g transform="translate(333.94 257.76)"><path d="m-1.5859 0h14.006v0.95h-14.038zm13.176-1.82 5.02 2.29-5.02 2.29z" stroke="#000" stroke-linejoin="round" stroke-miterlimit="10" stroke-width=".013"/></g><g transform="translate(297.58 223.96)"><path d="m0 0v12.99h1.04v-12.99zm-1.98 12.23 2.51 4.58 2.51-4.58z" stroke="#000" stroke-linejoin="round" stroke-miterlimit="10" stroke-width=".013"/></g><g transform="translate(412.34 408.42)"><path d="m0 0h24.63v-0.78h-24.63zm0.83-2.68-3.37 2.29 3.37 2.29zm22.95 4.58 3.37-2.29-3.37-2.29z" stroke="#000" stroke-linejoin="round" stroke-miterlimit="10" stroke-width=".025"/></g><g transform="translate(619.01 412.29)"><path d="m0 0h30.11v0.78h-30.11zm0.83 2.68-3.34-2.29 3.34-2.29zm28.42-4.58 3.37 2.29-3.37 2.29z" stroke="#000" stroke-linejoin="round" stroke-miterlimit="10" stroke-width=".025"/></g><g transform="translate(619.13 400.15)"><path d="m0 0h30.11v0.78h-30.11zm0.83 2.68-3.34-2.29 3.34-2.29zm28.42-4.58 3.37 2.29-3.37 2.29z" stroke="#000" stroke-linejoin="round" stroke-miterlimit="10" stroke-width=".025"/></g><g transform="matrix(.025749 0 0 .023495 17.507 -1.9983)" fill="#000000" font-family="Calibri" font-size="327.68px"><text transform="translate(15559 25632)"><tspan x="0 160.5632 327.67999" y="0">32b</tspan></text><text transform="translate(15628 27076)"><tspan x="0 160.5632" y="0">4b</tspan></text></g><g transform="matrix(.023297 0 0 .021258 17.507 -1.9983)"><text transform="translate(16977 19193)" fill="#000000" font-family="Calibri" font-size="327.68px"><tspan x="0 206.4384 357.1712 534.11841 701.23517 907.67358" y="0">USB_HS</tspan></text></g><g transform="matrix(.025749 0 0 .023495 17.507 -1.9983)" fill="#000000" font-family="Calibri" font-size="327.68px"><text transform="translate(22339 15629)"><tspan x="0 154.0096 235.9296 498.07358 665.19037" y="0">Timer</tspan></text><text transform="translate(22656 17760)"><tspan x="0 81.919998 167.11679" y="0">IIC</tspan></text><text transform="translate(22351 16173)"><tspan x="0 167.11679 458.75198" y="0">PWM</tspan></text></g><g transform="translate(619.38 388.9)"><path d="m0 0h29.64v-0.78h-29.64zm0.86-2.68-3.37 2.29 3.37 2.29zm27.95 4.58 3.34-2.29-3.34-2.29z" stroke="#000" stroke-linejoin="round" stroke-miterlimit="10" stroke-width=".025"/></g><g transform="matrix(.025749 0 0 .023495 17.507 -1.9983)" fill="#000000" font-family="Calibri" font-size="327.68px"><text transform="translate(22196 16698)"><tspan x="0 278.52798 452.19839 638.97601 789.7088" y="0">MCASP</tspan></text><text transform="translate(22314 17243)"><tspan x="0 209.71519 396.4928 576.7168" y="0">UART</tspan></text></g><g transform="translate(17.507 -1.9983)"><path d="m640.35 157.05v26.08h63.48v-26.08z" fill="#c9e9ca" fill-rule="evenodd"/><path d="m640.35 157.05h63.48v26.08h-63.48z" fill="none" stroke="#000" stroke-miterlimit="8" stroke-width="1.055"/></g><g transform="matrix(.025749 0 0 .023495 17.507 -1.9983)" fill="#000000" font-family="Calibri" font-size="327.68px"><text transform="translate(25396 7157.1)"><tspan x="0 180.224 353.89438 521.01117 632.42236 701.23517 983.03998 1156.7103 1323.8271 1490.944" y="0">Boot Mode </tspan></text><text transform="translate(25644 7545.3)"><tspan x="0 180.224 353.89438 458.75198 570.16321 740.55676" y="0">Button</tspan></text></g><g transform="translate(17.507 -1.9983)"><path d="m634.22 217.59v27.97h64.74v-27.97z" fill="#deebf7" fill-rule="evenodd"/><path d="m634.22 217.59h64.74v27.97h-64.74z" fill="none" stroke="#000" stroke-miterlimit="8" stroke-width="1.055"/></g><g transform="matrix(.025749 0 0 .023495 17.507 -1.9983)" fill="#000000" font-family="Calibri" font-size="327.68px"><text transform="translate(25011 9772.2)"><tspan x="0 160.5632 271.9744 442.36798 609.4848 727.44958 894.56641 1061.6832 1166.5408 1228.7999 1405.7472 1608.9088" y="0">Ethernet PHY</tspan></text><text transform="translate(25110 10167)"><tspan x="0 206.4384 373.55521 540.672 701.23517 868.35199 1032.192 1192.7551 1366.4255" y="0">DP83867CR</tspan></text></g><g transform="translate(17.507 -1.9983)"><path d="m632.84 569.02v25.73h58.21v-25.73z" fill="#ededed" fill-rule="evenodd"/><path d="m632.84 569.02h58.21v25.73h-58.21z" fill="none" stroke="#000" stroke-miterlimit="8" stroke-width="1.055"/></g><g transform="matrix(.023297 0 0 .021258 17.507 -1.9983)" fill="#000000" font-family="Calibri" font-size="327.68px"><text transform="translate(27753 27119)"><tspan x="0 170.3936 321.1264 406.32318 638.97601 809.36957 983.03998 1153.4336 1333.6576" y="0">CSI1Conn </tspan></text><text transform="translate(27691 27510)"><tspan x="0 101.5808 288.3584 458.75198 534.11841 638.97601 694.68158 858.52161 1022.3616 1196.032 1271.3983" y="0">(RPi) 22Pin</tspan></text></g><g transform="matrix(.020232 0 0 .018461 17.507 -1.9983)"><text transform="translate(32274 32086)" fill="#000000" font-family="Calibri" font-size="327.68px"><tspan x="0 245.75999 380.1088 537.3952 720.896" y="0">4Lane</tspan></text></g><g transform="matrix(.025749 0 0 .023495 17.507 -1.9983)"><text transform="translate(22612 18244)" fill="#000000" font-family="Calibri" font-size="327.68px"><tspan x="0 150.7328 317.84958" y="0">SPI</tspan></text></g><g transform="translate(412.74 477.34)"><path d="m0 0h24.63v-0.78h-24.63zm0.83-2.68-3.37 2.29 3.37 2.29zm22.95 4.58 3.37-2.29-3.37-2.29z" stroke="#000" stroke-linejoin="round" stroke-miterlimit="10" stroke-width=".025"/></g><g transform="translate(17.507 -1.9983)"><path d="m236.53 325.35v62.96h71.88v-62.96z" fill="#bfbfbf" fill-rule="evenodd"/><path d="m236.53 325.35h71.88v62.96h-71.88z" fill="none" stroke="#000" stroke-miterlimit="8" stroke-width="1.042"/></g><g transform="matrix(.023297 0 0 .021258 17.507 -1.9983)" fill="#000000" font-family="Calibri" font-size="327.68px"><text transform="translate(11435 16702)"><tspan x="0 199.8848 370.27838 527.56476" y="0">Dual</tspan></text><text transform="translate(10748 17093)"><tspan x="0 206.4384 350.61758 521.01117 688.12799 763.49438 927.33435 1015.808 1166.5408 1317.2736 1490.944 1654.7839 1710.4896 1897.2672" y="0">USB3.0 Type A </tspan></text></g><g transform="translate(326.46 413.71)"><path d="m0 0h11.6v-0.75h-11.6zm0.85-2.66-3.36 2.3 3.36 2.29zm9.9 4.59 3.36-2.29-3.36-2.3z" stroke="#000" stroke-linejoin="round" stroke-miterlimit="10" stroke-width=".025"/></g><g transform="translate(17.507 -1.9983)"><path d="m295.09 462.82v47.73h97.05v-47.73z" fill="#d9d9d9" fill-rule="evenodd"/><path d="m295.09 462.82h97.05v47.73h-97.05z" fill="none" stroke="#000" stroke-miterlimit="8" stroke-width="1.055"/></g><g transform="matrix(.025749 0 0 .023495 17.507 -1.9983)"><text transform="translate(11918 20620)" fill="#000000" font-family="Calibri" font-size="327.68px"><tspan x="0 167.11679 340.7872 429.2608 589.82397 665.19037 943.71838 1032.192 1192.7551 1255.0144 1428.6848 1595.8015 1769.4719 1939.8656 2018.5088 2120.0896 2293.76 2454.3232 2605.0559 2667.3152 2834.4319" y="0">PCIe M.2 Conn (Key E)</tspan></text></g><g transform="matrix(.026975 0 0 .024614 17.507 -1.9983)"><text transform="translate(11471 20073)" fill="#000000" font-family="Calibri" font-size="327.68px"><tspan x="0 203.16159 357.1712 521.01117 704.51196 878.18237 1045.2992 1209.1392 1304.1664 1458.176 1625.2927 1785.856 1975.9104 2129.9199 2231.5007 2388.7871" y="0">AS0BC27-S40BE-7H</tspan></text></g><g transform="translate(17.507 -1.9983)"><path d="m317.46 194.85v31.51h62.88v-31.51z" fill="#deebf7" fill-rule="evenodd"/><path d="m317.46 194.85h62.88v31.51h-62.88z" fill="none" stroke="#000" stroke-miterlimit="8" stroke-width="1.042"/></g><g transform="matrix(.025749 0 0 .023495 17.507 -1.9983)"><text transform="translate(12894 8880)" fill="#000000" font-family="Calibri" font-size="327.68px"><tspan x="0 193.33119 334.23358 498.07358 638.97601 809.36957 969.9328 1156.7103" y="0">VSYS_5V0</tspan></text></g><g transform="matrix(.025749 0 0 .023495 17.279 -1.9983)"><text transform="translate(12571 9275)" fill="#000000" font-family="Calibri" font-size="327.68px"><tspan x="0 209.71519 367.00159 553.77917 714.34241 802.81598 963.37915 1038.7456 1199.3087 1353.3184 1533.5424 1697.3823 1769.4719" y="0">USB3.0 Type A</tspan></text></g><g transform="translate(325.23 209.55)"><path d="m0 0h6.01v-0.95h-6.01zm5.18 1.82 5.03-2.29-5.03-2.29z" stroke="#000" stroke-linejoin="round" stroke-miterlimit="10" stroke-width=".013"/></g><g transform="translate(618.23 579.05)"><path d="m0 0h31.66v0.76h-31.66zm0.83 2.68-3.34-2.29 3.34-2.29z" stroke="#000" stroke-linejoin="round" stroke-miterlimit="10" stroke-width=".025"/></g><g transform="translate(620.06 230.82)"><path d="m0 0h29.16v0.76h-29.16zm0.83 2.66-3.34-2.29 3.34-2.29zm27.47-4.58 3.37 2.29-3.37 2.29z" stroke="#000" stroke-linejoin="round" stroke-miterlimit="10" stroke-width=".025"/></g><g transform="matrix(.025749 0 0 .023495 17.507 -1.9983)"><text transform="translate(19828 9458.9)" fill="#000000" font-family="Calibri" font-size="327.68px"><tspan x="0 278.52798 452.19839 665.19037 825.7536 1005.9776 1225.5232 1448.3456 1602.3552 1884.1599 2100.4287 2306.8672" y="0">MCU_BOOTMODE</tspan></text></g><g transform="translate(412.77 486.92)"><path d="m0 0h24.63v-0.78h-24.63zm0.83-2.68-3.37 2.29 3.37 2.29zm22.95 4.58 3.37-2.29-3.37-2.29z" stroke="#000" stroke-linejoin="round" stroke-miterlimit="10" stroke-width=".025"/></g><g transform="translate(412.82 495.88)"><path d="m0 0h24.63v-0.78h-24.63zm0.83-2.68-3.37 2.29 3.37 2.29zm22.95 4.58 3.37-2.29-3.37-2.29z" stroke="#000" stroke-linejoin="round" stroke-miterlimit="10" stroke-width=".025"/></g><g transform="matrix(.025749 0 0 .023495 17.507 -1.9983)" fill="#000000" font-family="Calibri" font-size="327.68px"><text transform="translate(16460 20906)"><tspan x="0 212.99199 396.4928 576.7168 734.00317" y="0">UART1</tspan></text><text transform="translate(16491 21294)"><tspan x="0 278.52798 452.19839 638.97601 789.7088 963.37915 1123.9424" y="0">MCASP10</tspan></text></g><g transform="translate(441.49 527.13)"><path d="m0 0h-112.6v-0.78h112.6zm-111.77 1.9-3.34-2.29 3.34-2.29z" stroke="#000" stroke-linejoin="round" stroke-miterlimit="10" stroke-width=".025"/></g><g transform="matrix(.025749 0 0 .023495 17.507 -1.9983)"><text transform="translate(16560 22548)" fill="#000000" font-family="Calibri" font-size="327.68px"><tspan x="0 150.7328 317.84958 498.07358 694.68158 865.0752 1005.9776 1173.0944 1336.9343 1490.944" y="0">SERDES4_TX</tspan></text></g><g transform="matrix(.023297 0 0 .021258 17.507 -1.9983)"><text transform="translate(16909 24740)" fill="#000000" font-family="Calibri" font-size="327.68px"><tspan x="0 199.8848 370.27838 537.3952 638.97601 802.81598 940.44159" y="0">DP0(4L)</tspan></text></g><g transform="translate(330.12 536.8)"><path d="m0 0h108.86v0.76h-108.86zm0.83 2.68-3.34-2.29 3.34-2.29zm107.2-4.58 3.34 2.29-3.34 2.29z" stroke="#000" stroke-linejoin="round" stroke-miterlimit="10" stroke-width=".025"/></g><g transform="matrix(.025749 0 0 .023495 17.507 -1.9983)"><text transform="translate(16523 23038)" fill="#000000" font-family="Calibri" font-size="327.68px"><tspan x="0 199.8848 373.55521 534.11841 701.23517 888.01276 1101.0048" y="0">DP0_AUX</tspan></text></g><g transform="translate(619.74 263.86)"><path d="m0 0h28.92v-0.75h-28.92zm0.85-2.68-3.37 2.29 3.37 2.3zm27.22 4.59 3.37-2.3-3.37-2.29z" stroke="#000" stroke-linejoin="round" stroke-miterlimit="10" stroke-width=".025"/></g><g transform="translate(499.72 184.6)"><path d="m0 0v24.72h0.84v-24.72zm-2.09 23.95 2.51 3.06 2.51-3.06z" stroke="#000" stroke-linejoin="round" stroke-miterlimit="10" stroke-width=".013"/></g><g transform="translate(17.507 -1.9983)"><path d="m247.17 145.16v34.6h63.65v-34.6z" fill="#d9d9d9" fill-rule="evenodd"/><path d="m247.17 145.16h63.65v34.6h-63.65z" fill="none" stroke="#000" stroke-miterlimit="8" stroke-width="1.042"/></g><g transform="matrix(.025749 0 0 .023495 17.507 -1.9983)"><text transform="translate(10346 6639.7)" fill="#000000" font-family="Calibri" font-size="327.68px"><tspan x="0 199.8848 373.55521 442.36798 547.22559 701.23517 838.86078" y="0">DC Jack</tspan></text></g><g transform="matrix(.025749 0 0 .023495 14.991 -1.9983)"><text transform="translate(10327 7027.8)" fill="#000000" font-family="Calibri" font-size="327.68px"><tspan x="0 229.37599 298.18878 478.41278 658.63678 838.86078 907.67358 1074.7904" y="0">&amp; BBB P9</tspan></text></g><g transform="matrix(.025749 0 0 .023495 17.887 -1.9983)"><text transform="translate(10302 7416)" fill="#000000" font-family="Calibri" font-size="327.68px"><tspan x="0 167.11679 360.448 435.81439 652.08319 832.30719 907.67358" y="0">5V Only</tspan></text></g><g transform="matrix(.025749 0 0 .023495 17.507 -1.9983)"><text transform="translate(12701 6040.3)" fill="#000000" font-family="Calibri" font-size="327.68px"><tspan x="0 173.67039 340.7872 576.7168 740.55676 858.52161 920.78076 1005.9776 1179.6479 1350.0416 1523.7119 1628.5696 1690.8287" y="0">Power Input 2</tspan></text></g><g transform="translate(17.507 -1.9983)"><path d="m346.51 180.21v5.38" fill="none" stroke="#000" stroke-miterlimit="8" stroke-width=".841"/></g><g transform="matrix(.023297 0 0 .021258 17.507 -1.9983)"><text transform="translate(13454 17567)" fill="#000000" font-family="Calibri" font-size="327.68px"><tspan x="0 206.4384 357.1712 534.11841 701.23517 783.15521 946.99518 1114.1119 1264.8447 1409.0239 1572.864" y="0">USB3.0_SS_2</tspan></text></g><g transform="translate(392.12 341.4)"><path d="m0 0h-63.24v0.77h63.24zm-62.4-1.9-3.35 2.29 3.35 2.29z" stroke="#000" stroke-linejoin="round" stroke-miterlimit="10" stroke-width=".013"/></g><g transform="matrix(.023297 0 0 .021258 17.507 -1.9983)" fill="#000000" font-family="Calibri" font-size="327.68px"><text transform="translate(13571 16062)"><tspan x="0 206.4384 350.61758 534.11841 694.68158 783.15521 946.99518 1114.1119 1258.2911 1402.4703 1566.3104" y="0">USB3.0_SS_1</tspan></text><text transform="translate(13406 16995)"><tspan x="0 212.99199 357.1712 534.11841 701.23517 789.7088 953.54877 1114.1119 1323.8271 1471.2832 1635.1232" y="0">USB2.0_HS_2</tspan></text></g><g transform="translate(365.14 372.95)"><path d="m0 0-36.31 0.21 0.01 0.76 36.3-0.21zm-35.48-1.71-3.33 2.32 3.37 2.27z" stroke="#000" stroke-linejoin="round" stroke-miterlimit="10" stroke-width=".013"/></g><g transform="translate(392.54 341.94)"><path d="m0 0v39.76h-0.84v-39.76zm2.1 39-2.52 3.05-2.51-3.05z" stroke="#000" stroke-linejoin="round" stroke-miterlimit="10" stroke-width=".013"/></g><g transform="translate(365.56 372.95)"><path d="m0 0v8.75h-0.83v-8.75zm2.09 7.99-2.51 3.05-2.51-3.05z" stroke="#000" stroke-linejoin="round" stroke-miterlimit="10" stroke-width=".013"/></g><g transform="translate(373.99 458.53)"><path d="m0 0v-16.18h-0.85v16.18zm-2.93-0.76 2.51 3.05 2.51-3.05zm5.02-14.66-2.51-3.05-2.51 3.05z" stroke="#000" stroke-linejoin="round" stroke-miterlimit="10" stroke-width=".025"/></g><g transform="matrix(.023297 0 0 .021258 17.507 -1.9983)"><text transform="translate(13406 21383)" fill="#000000" font-family="Calibri" font-size="327.68px"><tspan x="0 212.99199 357.1712 534.11841 701.23517 789.7088 953.54877 1114.1119 1323.8271 1471.2832 1635.1232" y="0">USB2.0_HS_3</tspan></text></g><g transform="translate(17.507 -1.9983)"><path d="m298.53 557.11v27.17h91.93v-27.17z" fill="#d6dce5" fill-rule="evenodd"/><path d="m298.53 557.11h91.93v27.17h-91.93z" fill="none" stroke="#000" stroke-miterlimit="8" stroke-width="1.055"/></g><g transform="matrix(.025749 0 0 .023495 17.507 -1.9983)"><text transform="translate(12440 24230)" fill="#000000" font-family="Calibri" font-size="327.68px"><tspan x="0 167.11679 448.9216 727.44958 901.12 963.37915 1061.6832 1225.5232 1392.64 1602.3552 1776.0255" y="0">eMMC (16GB)</tspan></text></g><g transform="matrix(.023297 0 0 .021258 17.507 -1.9983)"><text transform="translate(13303 27171)" fill="#000000" font-family="Calibri" font-size="327.68px"><tspan x="0 163.84 445.64478 734.00317 907.67358 1071.5135 1228.7999 1441.792 1546.6495 1703.9359 1887.4368 2054.5535 2218.3936 2319.9744 2493.6448 2644.3774 2808.2175" y="0">EMMC16G-TB29-PZ90</tspan></text></g><g transform="matrix(.025749 0 0 .023495 17.507 -1.9983)"><text transform="translate(16535 24386)" fill="#000000" font-family="Calibri" font-size="327.68px"><tspan x="0 278.52798 560.33276 734.00317" y="0">MMC0</tspan></text></g><g transform="translate(410.96 568.62)"><path d="m0 0h26.76v-0.75h-26.76zm0.82-2.65-3.34 2.29 3.34 2.29zm25.12 4.58 3.34-2.29-3.34-2.29z" stroke="#000" stroke-linejoin="round" stroke-miterlimit="10" stroke-width=".025"/></g><g transform="matrix(.023297 0 0 .021258 17.507 -1.9983)"><text transform="translate(10563 20683)" fill="#000000" font-family="Calibri" font-size="327.68px"><tspan x="0 206.4384 350.61758 537.3952 701.23517 783.15521 946.99518 1114.1119 1317.2736 1461.4528 1628.5696" y="0">USB2.0_HS_4</tspan></text></g><g transform="matrix(.025749 0 0 .023495 17.507 -1.9983)"><text transform="translate(15628 24216)" fill="#000000" font-family="Calibri" font-size="327.68px"><tspan x="0 160.5632" y="0">8b</tspan></text></g><g transform="translate(619.86 294.09)"><path d="m0 0h27.57v0.75h-27.57zm0.83 2.68-3.34-2.29 3.34-2.3zm25.92-4.59 3.34 2.3-3.34 2.29z" stroke="#000" stroke-linejoin="round" stroke-miterlimit="10" stroke-width=".025"/></g><g transform="translate(17.507 -1.9983)"><path d="m632.89 282.8v27.97h66.47v-27.97z" fill="#deebf7" fill-rule="evenodd"/><path d="m632.89 282.8h66.47v27.97h-66.47z" fill="none" stroke="#000" stroke-miterlimit="8" stroke-width="1.055"/></g><g transform="matrix(.025749 0 0 .023495 17.507 -1.9983)" fill="#000000" font-family="Calibri" font-size="327.68px"><text transform="translate(25458 12551)"><tspan x="0 180.224 347.34079 452.19839 553.77917 714.34241" y="0">Buffer</tspan></text><text transform="translate(24830 12939)"><tspan x="0 154.0096 380.1088 540.672 701.23517 845.41437 1038.7456 1212.416 1372.9791 1585.9712 1753.088 1913.6511" y="0">SN74LVC2G241</tspan></text></g><g transform="translate(729.05 293.33)"><path d="m0 0h-9.22v-0.75h9.22zm-0.83-2.65 3.34 2.29-3.34 2.29zm-7.56 4.58-3.34-2.29 3.34-2.29z" stroke="#000" stroke-linejoin="round" stroke-miterlimit="10" stroke-width=".025"/></g><g transform="translate(17.507 -1.9983)"><path d="m713.8 283.39v26.17h56.12v-26.17z" fill="#bfbfbf" fill-rule="evenodd"/><path d="m713.8 283.39h56.12v26.17h-56.12z" fill="none" stroke="#000" stroke-miterlimit="8" stroke-width="1.055"/></g><g transform="matrix(.025749 0 0 .023495 17.507 -1.9983)" fill="#000000" font-family="Calibri" font-size="327.68px"><text transform="translate(27981 12537)"><tspan x="0 206.4384 367.00159 540.672 714.34241 871.62878 930.61121 1143.6031 1330.3807 1510.6047" y="0">Debug UART</tspan></text><text transform="translate(28086 12925)"><tspan x="0 167.11679 249.03679 416.15359 484.9664 684.8512 851.96796 1005.9776 1173.0944 1343.4879" y="0">Pin Header</tspan></text></g><g transform="translate(17.507 -1.9983)"><path d="m335.77 695.02v22.52h58v-22.52z" fill="#fbe5d6" fill-rule="evenodd"/><path d="m335.77 695.02h58v22.52h-58z" fill="none" stroke="#000" stroke-miterlimit="8" stroke-width="1.055"/></g><g transform="matrix(.025749 0 0 .023495 17.507 -1.9983)" fill="#000000" font-family="Calibri" font-size="327.68px"><text transform="translate(13645 29977)"><tspan x="0 167.11679 285.0816 435.81439 560.33276 671.74396 825.7536" y="0">Crystal</tspan></text><text transform="translate(13279 30372)"><tspan x="0 160.5632 327.67999 409.60001 576.7168 740.55676 901.12 1068.2368 1346.7648 1553.2031" y="0">22.5792MHz</tspan></text><text transform="translate(21270 12728)"><tspan x="0 285.0816 458.75198 671.74396 845.41437 1005.9776 1218.9696 1405.7472 1585.9712 1739.9807" y="0">WKUP_UART0</tspan></text></g><g transform="translate(652.76 434.84)"><path d="m0 0h-33.48v0.75h33.48zm-32.65-1.93-3.34 2.29 3.34 2.3z" stroke="#000" stroke-linejoin="round" stroke-miterlimit="10" stroke-width=".025"/></g><g transform="translate(619.36 423.4)"><path d="m0 0h30.11v0.78h-30.11zm0.83 2.68-3.34-2.29 3.34-2.29zm28.42-4.58 3.37 2.29-3.37 2.29z" stroke="#000" stroke-linejoin="round" stroke-miterlimit="10" stroke-width=".025"/></g><g transform="matrix(.025749 0 0 .023495 17.507 -1.9983)" fill="#000000" font-family="Calibri" font-size="327.68px"><text transform="translate(21605 18720)"><tspan x="0 278.52798 452.19839 665.19037 825.7536 1012.5312 1218.9696 1386.0864" y="0">MCU_ADC0</tspan></text><text transform="translate(16566 30175)"><tspan x="0 216.2688 367.00159 540.672" y="0">OSC1</tspan></text></g><g transform="translate(411 160.77)"><path d="m0 0h-6.24v0.96h6.24zm-5.42-1.81-5.02 2.29 5.02 2.29z" stroke="#000" stroke-linejoin="round" stroke-miterlimit="10" stroke-width=".013"/></g><g transform="translate(17.507 -1.9983)"><path d="m392.9 162.94-0.85998 76.16" fill="none" stroke="#000" stroke-miterlimit="8" stroke-width=".841"/></g><g transform="translate(409.61 228.52)"><path d="m0 0 28.46 0.39-0.02 0.77-28.45-0.39zm27.65-1.53 3.32 2.33-3.39 2.25z" stroke="#000" stroke-linejoin="round" stroke-miterlimit="10" stroke-width=".013"/></g><g transform="matrix(.023297 0 0 .021258 17.507 -1.9983)" fill="#000000" font-size="327.68px"><text transform="translate(16943 10763)" font-family="F7"><tspan x="0 212.99199 357.1712 534.11841 701.23517 907.67358" y="0" font-family="Calibri">USB_HS</tspan></text><text transform="translate(12204 11049)" font-family="F2"><tspan x="0 163.84" y="0">5V</tspan></text></g><g transform="translate(303.69 183.21)"><path d="m0 0v5.76h-1.05v-5.76zm1.99 5-2.51 4.58-2.51-4.58z" stroke="#000" stroke-linejoin="round" stroke-miterlimit="10" stroke-width=".013"/></g><g transform="translate(17.507 -1.9983)"><path d="m285.66 185.59h60.85" fill="none" stroke="#000" stroke-miterlimit="8" stroke-width=".841"/></g><g transform="matrix(.025749 0 0 .023495 17.507 -1.9983)"><text transform="translate(16473 20089)" fill="#000000" font-family="Calibri" font-size="327.68px"><tspan x="0 150.7328 311.29599 491.51999 694.68158 858.52161 1005.9776 1166.5408 1228.7999 1336.9343 1497.4976 1641.6768" y="0">SERDES1 (2L)</tspan></text></g><g transform="translate(412.84 468.13)"><path d="m0 0h24.63v-0.78h-24.63zm0.83-2.68-3.37 2.29 3.37 2.29zm22.95 4.58 3.37-2.29-3.37-2.29z" stroke="#000" stroke-linejoin="round" stroke-miterlimit="10" stroke-width=".025"/></g><g transform="matrix(.017779 0 0 .016223 17.507 -1.9983)"><text transform="translate(22345 28818)" fill="#000000" font-family="Calibri" font-size="327.68px"><tspan x="0 170.3936 340.7872 412.8768 576.7168 665.19037 835.58398 937.16479 1107.5583 1241.9072" y="0">PCIe 1(2L)</tspan></text></g><g transform="matrix(.025749 0 0 .023495 17.507 -1.9983)"><text transform="translate(21786 20586)" fill="#000000" font-family="Calibri" font-size="327.68px"><tspan x="0 278.52798 452.19839 665.19037 825.7536 976.48639 1150.1567 1235.3535" y="0">MCU_SPI1</tspan></text></g><g transform="translate(619.36 478.81)"><path d="m0 0h29.16v0.76h-29.16zm0.83 2.66-3.34-2.29 3.34-2.29zm27.47-4.58 3.37 2.29-3.37 2.29z" stroke="#000" stroke-linejoin="round" stroke-miterlimit="10" stroke-width=".025"/></g><g transform="matrix(.025749 0 0 .023495 17.507 -1.9983)"><text transform="translate(22233 26484)" fill="#000000" font-family="Calibri" font-size="327.68px"><tspan x="0 206.4384 347.34079 435.81439 540.672 694.68158" y="0">DSI-TX</tspan></text></g><g transform="translate(17.507 -1.9983)"><path d="m633.26 605.75v25.75h58.21v-25.75z" fill="#ededed" fill-rule="evenodd"/><path d="m633.26 605.75h58.21v25.75h-58.21z" fill="none" stroke="#000" stroke-miterlimit="8" stroke-width="1.055"/></g><g transform="translate(-.26644 .59544)"><g transform="matrix(.023297 0 0 .021258 17.507 -1.9983)"><text transform="translate(27485 28850)" fill="#000000" font-family="Calibri" font-size="327.68px"><tspan x="0 199.8848 350.61758 501.3504 671.74396 851.96796 1022.3616 1196.032 1258.2911 1359.8719 1536.8192 1710.4896 1785.856 1887.4368" y="0">DSIConn (RPi) </tspan></text></g><g transform="matrix(.023297 0 0 .021258 17.507 -2.716)"><text transform="translate(28055 29234)" fill="#000000" font-family="Calibri" font-size="327.68px"><tspan x="0 163.84 330.95679 501.3504 576.7168" y="0">22Pin</tspan></text></g><g transform="matrix(.020232 0 0 .018461 17.507 -3.4336)"><text transform="translate(32298 34070)" fill="#000000" font-family="Calibri" font-size="327.68px"><tspan x="0 235.9296 380.1088 537.3952 711.06561" y="0">4Lane</tspan></text></g></g><g transform="translate(648.51 617.31)"><path d="m0 0-32.59 0.07v0.78l32.59-0.09zm-0.82 2.68 3.33-2.31-3.36-2.27z" stroke="#000" stroke-linejoin="round" stroke-miterlimit="10" stroke-width=".025"/></g><g transform="matrix(.025749 0 0 .023495 17.507 -1.9983)" fill="#000000" font-family="Calibri" font-size="327.68px"><text transform="translate(20878 21063)"><tspan x="0 278.52798 452.19839 665.19037 825.7536 983.03998 1068.2368 1346.7648 1510.6047 1690.8287 1857.9456 1933.312 2149.5808" y="0">MCU_TIMER_IO1</tspan></text><text transform="translate(21444 21533)"><tspan x="0 278.52798 452.19839 665.19037 825.7536 1038.7456 1225.5232 1405.7472 1559.7567" y="0">MCU_UART0</tspan></text><text transform="translate(21761 21928)"><tspan x="0 278.52798 452.19839 665.19037 825.7536 914.22717 1074.7904 1248.4608" y="0">MCU_I2C1</tspan></text><text transform="translate(22233 22370)"><tspan x="0 167.11679 340.7872 576.7168 740.55676" y="0">Power</tspan></text></g><g transform="translate(619.51 489.74)"><path d="m0 0h29.16v0.76h-29.16zm0.83 2.66-3.34-2.29 3.34-2.29zm27.47-4.58 3.37 2.29-3.37 2.29z" stroke="#000" stroke-linejoin="round" stroke-miterlimit="10" stroke-width=".025"/></g><g transform="translate(618.91 500.51)"><path d="m0 0h29.16v0.76h-29.16zm0.83 2.66-3.34-2.29 3.34-2.29zm27.47-4.58 3.37 2.29-3.37 2.29z" stroke="#000" stroke-linejoin="round" stroke-miterlimit="10" stroke-width=".025"/></g><g transform="translate(618.93 510.66)"><path d="m0 0h29.16v0.76h-29.16zm0.83 2.66-3.34-2.29 3.34-2.29zm27.47-4.58 3.37 2.29-3.37 2.29z" stroke="#000" stroke-linejoin="round" stroke-miterlimit="10" stroke-width=".025"/></g><g transform="translate(648.06 521.24)"><path d="m0 0-32.59 0.07v0.78l32.59-0.09zm-0.82 2.68 3.33-2.31-3.36-2.27z" stroke="#000" stroke-linejoin="round" stroke-miterlimit="10" stroke-width=".025"/></g><g transform="translate(17.507 -1.9983)"><path d="m633.57 464.52v65.39h63.48v-65.39z" fill="#d0cece" fill-rule="evenodd"/><path d="m633.57 464.52h63.48v65.39h-63.48z" fill="none" stroke="#000" stroke-miterlimit="8" stroke-width="1.055"/></g><g transform="matrix(0 -.023496 .025748 0 17.507 -1.9983)" fill="#000000" font-family="Calibri" font-size="327.68px"><text transform="translate(-21505 25564)"><tspan x="0 291.63519 462.02878" y="0">MCU</tspan></text><text transform="translate(-22370 25950)"><tspan x="0 265.42081 340.7872 498.07358 619.31519 796.26239 979.76318 1192.7551 1409.0239 1622.016 1782.5791 1946.4192 2129.9199 2293.76" y="0">mikroBUSHeader</tspan></text><text transform="translate(-22281 26341)"><tspan x="0 163.84 308.0192 386.66238 550.50238 625.86877 802.81598 878.18237 1055.1295 1130.496 1294.3359 1376.256 1540.0959 1710.4896 1969.3568" y="0">2x 8 Pin 1.27mm</tspan></text></g><g transform="translate(411.31 703.9)"><path d="m0 0 27.05 0.32-0.029999 0.76-27.05-0.32zm26.24-1.6 3.32 2.33-3.39 2.25z" stroke="#000" stroke-linejoin="round" stroke-miterlimit="10" stroke-width=".025"/></g><g transform="translate(17.507 -1.9983)"><path d="m632.84 643.23v18.13h63.48v-18.13z" fill="#c9e9ca" fill-rule="evenodd"/><path d="m632.84 643.23h63.48v18.13h-63.48z" fill="none" stroke="#000" stroke-miterlimit="8" stroke-width="1.055"/></g><g transform="matrix(.025749 0 0 .023495 17.507 -1.9983)" fill="#000000" font-family="Calibri" font-size="327.68px"><text transform="translate(25309 27880)"><tspan x="0 160.5632 304.7424 380.1088 521.01117 684.8512 888.01276" y="0">5x LEDs</tspan></text><text transform="translate(22395 27866)"><tspan x="0 209.71519 380.1088 465.3056 684.8512" y="0">GPIOs</tspan></text></g><g transform="translate(17.507 -1.9983)"><path d="m633.39 671.97v18.88h63.86v-18.88z" fill="#c9e9ca" fill-rule="evenodd"/><path d="m633.39 671.97h63.86v18.88h-63.86z" fill="none" stroke="#000" stroke-miterlimit="8" stroke-width="1.055"/></g><g transform="matrix(.025749 0 0 .023495 17.507 -1.9983)" fill="#000000" font-family="Calibri" font-size="327.68px"><text transform="translate(25017 29119)"><tspan x="0 180.224 340.7872 465.3056 632.42236 740.55676 806.09277 989.59357 1163.2639 1274.6752 1379.5327 1553.2031" y="0">Reset Button</tspan></text><text transform="translate(22258 7681.6)"><tspan x="0 150.7328 304.7424 452.19839 616.03839 796.26239 1012.5312 1228.7999 1386.0864 1664.6144 1890.7135 2087.3215 2254.4382" y="0">SYS_BOOTMODE6</tspan></text></g><g transform="translate(648.26 649.55)"><path d="m0 0-32.59 0.07v0.78l32.59-0.09zm-0.82 2.68 3.33-2.31-3.36-2.27z" stroke="#000" stroke-linejoin="round" stroke-miterlimit="10" stroke-width=".025"/></g><g transform="translate(17.507 -1.9983)"><path d="m633.36 699.16v18.01h63.46v-18.01z" fill="#c9e9ca" fill-rule="evenodd"/><path d="m633.36 699.16h63.46v18.01h-63.46z" fill="none" stroke="#000" stroke-miterlimit="8" stroke-width="1.055"/></g><g transform="matrix(.025749 0 0 .023495 17.507 -1.9983)"><text transform="translate(24955 30256)" fill="#000000" font-family="Calibri" font-size="327.68px"><tspan x="0 167.11679 340.7872 576.7168 740.55676 858.52161 920.78076 1101.0048 1268.1216 1379.5327 1490.944 1658.0608" y="0">Power Button</tspan></text></g><g transform="translate(618.76 705.8)"><path d="m0 0h31.66v0.76h-31.66zm0.83 2.68-3.34-2.29 3.34-2.29z" stroke="#000" stroke-linejoin="round" stroke-miterlimit="10" stroke-width=".025"/></g><g transform="translate(619.06 679.02)"><path d="m0 0h31.66v0.76h-31.66zm0.83 2.68-3.34-2.29 3.34-2.29z" stroke="#000" stroke-linejoin="round" stroke-miterlimit="10" stroke-width=".025"/></g><g transform="matrix(.025749 0 0 .023495 17.507 -1.9983)" fill="#000000" font-family="Calibri" font-size="327.68px"><text transform="translate(21655,29085)"><tspan x="0 278.52798 452.19839 665.19037 825.7536 999.42395 1218.9696 1399.1936" y="0">MCU_PORz</tspan></text><text transform="translate(22488 30236)"><tspan x="0 212.99199 386.66238 471.85919" y="0">GPIO</tspan></text></g><g transform="matrix(.023297 0 0 .021258 17.507 -1.9983)"><text x="13217.393" y="9814.8799" fill="#000000" font-family="Calibri" font-size="327.68px"><tspan x="13217.393 13381.233" y="9814.8799">5V</tspan></text></g><g transform="translate(412.79 504.95)"><path d="m0 0h24.63v-0.78h-24.63zm0.83-2.68-3.37 2.29 3.37 2.29zm22.95 4.58 3.37-2.29-3.37-2.29z" stroke="#000" stroke-linejoin="round" stroke-miterlimit="10" stroke-width=".025"/></g><g transform="matrix(.025749 0 0 .023495 17.507 -1.9983)"><text transform="translate(16491 21676)" fill="#000000" font-family="Calibri" font-size="327.68px"><tspan x="0 88.473595 249.03679 422.70718" y="0">I2C0</tspan></text></g><g transform="translate(585.46 162.06)"><path d="m0 0h73.02v0.76h-73.02zm0.83 2.66-3.34-2.29 3.34-2.29z" stroke="#000" stroke-linejoin="round" stroke-miterlimit="10" stroke-width=".025"/></g><g transform="translate(585.46 171.23)"><path d="m0 0h73.02v0.76h-73.02zm0.83 2.66-3.34-2.29 3.34-2.29z" stroke="#000" stroke-linejoin="round" stroke-miterlimit="10" stroke-width=".025"/></g><g transform="matrix(.025749 0 0 .023495 17.507 -1.9983)"><text transform="translate(21612 20144)" fill="#000000" font-family="Calibri" font-size="327.68px"><tspan x="0 278.52798 452.19839 665.19037 825.7536 1012.5312 1218.9696 1392.64" y="0">MCU_ADC1</tspan></text></g><g transform="translate(618.81 467.9)"><path d="m0 0h29.16v0.76h-29.16zm0.83 2.66-3.34-2.29 3.34-2.29zm27.47-4.58 3.37 2.29-3.37 2.29z" stroke="#000" stroke-linejoin="round" stroke-miterlimit="10" stroke-width=".025"/></g><g transform="translate(620.31 328.34)"><path d="m0 0h27.57v0.75h-27.57zm0.83 2.68-3.34-2.29 3.34-2.3zm25.92-4.59 3.34 2.3-3.34 2.29z" stroke="#000" stroke-linejoin="round" stroke-miterlimit="10" stroke-width=".025"/></g><g transform="translate(17.507 -1.9983)"><path d="m633.34 317.05v27.98h66.47v-27.98z" fill="#deebf7" fill-rule="evenodd"/><path d="m633.34 317.05h66.47v27.98h-66.47z" fill="none" stroke="#000" stroke-miterlimit="8" stroke-width="1.055"/></g><g transform="matrix(.025749 0 0 .023495 17.507 -1.9983)" fill="#000000" font-family="Calibri" font-size="327.68px"><text transform="translate(25476 14008)"><tspan x="0 180.224 347.34079 448.9216 553.77917 714.34241" y="0">Buffer</tspan></text><text transform="translate(24849,14396)"><tspan x="0 154.0096 373.55521 540.672 701.23517 845.41437 1038.7456 1212.416 1372.9791 1585.9712 1746.5343 1913.6511" y="0">SN74LVC2G241</tspan></text></g><g transform="translate(17.507 -1.9983)"><path d="m714.25 317.62v26.17h56.12v-26.17z" fill="#bfbfbf" fill-rule="evenodd"/><path d="m714.25 317.62h56.12v26.17h-56.12z" fill="none" stroke="#000" stroke-miterlimit="8" stroke-width="1.055"/></g><g transform="matrix(.025749 0 0 .023495 17.507 -1.9983)" fill="#000000" font-family="Calibri" font-size="327.68px"><text transform="translate(27999 13994)"><tspan x="0 206.4384 367.00159 540.672 707.78876 868.35199 930.61121 1137.0496 1330.3807 1504.0511" y="0">Debug UART</tspan></text><text transform="translate(28105 14382)"><tspan x="0 167.11679 249.03679 416.15359 478.41278 684.8512 845.41437 1005.9776 1173.0944 1336.9343" y="0">Pin Header</tspan></text><text transform="translate(22233 14205)"><tspan x="0 209.71519 396.4928 576.7168 734.00317" y="0">UART0</tspan></text></g><g transform="translate(729.05 329.49)"><path d="m0 0h-9.22v-0.75h9.22zm-0.83-2.65 3.34 2.29-3.34 2.29zm-7.56 4.58-3.34-2.29 3.34-2.29z" stroke="#000" stroke-linejoin="round" stroke-miterlimit="10" stroke-width=".025"/></g><g transform="matrix(.025749 0 0 .023495 17.507 -1.9983)"><text transform="translate(22140 23515)" fill="#000000" font-family="Calibri" font-size="327.68px"><tspan x="0 173.67039 324.4032 409.60001 589.82397 756.9408" y="0">CSIRX0</tspan></text></g><g transform="translate(17.507 -1.9983)"><path d="m632.84 538.43v25.76h58.21v-25.76z" fill="#ededed" fill-rule="evenodd"/><path d="m632.84 538.43h58.21v25.76h-58.21z" fill="none" stroke="#000" stroke-miterlimit="8" stroke-width="1.055"/></g><g transform="matrix(.023297 0 0 .021258 17.507 -1.9983)" fill="#000000" font-family="Calibri" font-size="327.68px"><text transform="translate(27753 25681)"><tspan x="0 170.3936 321.1264 406.32318 638.97601 809.36957 983.03998 1153.4336 1333.6576" y="0">CSI0Conn </tspan></text><text transform="translate(27691 26065)"><tspan x="0 101.5808 288.3584 458.75198 534.11841 638.97601 694.68158 858.52161 1022.3616 1196.032 1271.3983" y="0">(RPi) 22Pin</tspan></text></g><g transform="matrix(.020232 0 0 .018461 17.507 -1.9983)"><text transform="translate(32274 30422)" fill="#000000" font-family="Calibri" font-size="327.68px"><tspan x="0 245.75999 380.1088 537.3952 720.896" y="0">4Lane</tspan></text></g><g transform="translate(618.23 548.48)"><path d="m0 0h31.66v0.76h-31.66zm0.83 2.68-3.34-2.29 3.34-2.29z" stroke="#000" stroke-linejoin="round" stroke-miterlimit="10" stroke-width=".025"/></g><g transform="translate(619.36 446.04)"><path d="m0 0h30.11v0.78h-30.11zm0.83 2.68-3.34-2.29 3.34-2.29zm28.42-4.58 3.37 2.29-3.37 2.29z" stroke="#000" stroke-linejoin="round" stroke-miterlimit="10" stroke-width=".025"/></g><g transform="matrix(.025749 0 0 .023495 17.507 -1.9983)"><text transform="translate(22506 19197)" fill="#000000" font-family="Calibri" font-size="327.68px"><tspan x="0 206.4384 380.1088 465.3056" y="0">GPIO</tspan></text></g><g transform="translate(375.59 361.02)"><path d="m0 0h-46.28v0.77h46.28zm-45.45-1.9-3.34 2.29 3.34 2.3z" stroke="#000" stroke-linejoin="round" stroke-miterlimit="10" stroke-width=".013"/></g><g transform="translate(400.56 331.09)"><path d="m0 0h-71.74v0.76h71.74zm-70.91-1.91-3.34 2.29 3.34 2.29z" stroke="#000" stroke-linejoin="round" stroke-miterlimit="10" stroke-width=".013"/></g><g transform="translate(376 361.41)"><path d="m0 0v20.13h-0.83v-20.13zm2.1 19.38-2.51 3.04-2.51-3.04z" stroke="#000" stroke-linejoin="round" stroke-miterlimit="10" stroke-width=".013"/></g><g transform="translate(401.27 331.46)"><path d="m0 0 0.91 50.36-0.84 0.01-0.92-50.36zm3 49.56-2.46 3.09-2.57-3.01 5.03-0.08z" stroke="#000" stroke-linejoin="round" stroke-miterlimit="10" stroke-width=".013"/></g><g transform="matrix(.023297 0 0 .021258 17.507 -1.9983)"><text transform="translate(17025 19765)" fill="#000000" font-family="Calibri" font-size="327.68px"><tspan x="0 206.4384 357.1712 534.11841 701.23517 845.41437" y="0">USB_SS</tspan></text></g><g transform="translate(412.72 420.52)"><path d="m0 0h24.63v-0.78h-24.63zm0.83-2.68-3.37 2.29 3.37 2.29zm22.95 4.58 3.37-2.29-3.37-2.29z" stroke="#000" stroke-linejoin="round" stroke-miterlimit="10" stroke-width=".025"/></g><g transform="translate(409.43 236.66)"><path d="m0 0 28.46 0.39-0.02 0.77-28.45-0.39zm27.65-1.53 3.32 2.33-3.39 2.25z" stroke="#000" stroke-linejoin="round" stroke-miterlimit="10" stroke-width=".013"/></g><g transform="matrix(.023297 0 0 .021258 17.507 -1.9983)"><text transform="translate(16971 11147)" fill="#000000" font-family="Calibri" font-size="327.68px"><tspan x="0 206.4384 350.61758 534.11841 701.23517 845.41437" y="0">USB_SS</tspan></text></g><g fill="black" font-size="40px"><text transform="translate(212.64 31.2)" font-family="Caladea" style="line-height:1.25;shape-inside:url(#rect7179);white-space:pre" xml:space="preserve"/><g font-family="sans-serif"><text transform="translate(212.64 31.2)" style="line-height:1.25;shape-inside:url(#rect46003);white-space:pre" xml:space="preserve"/><text transform="translate(212.64 31.2)" style="line-height:1.25;shape-inside:url(#rect275011);white-space:pre" xml:space="preserve"/><text transform="translate(212.64 31.2)" style="line-height:1.25;shape-inside:url(#rect598902);white-space:pre" xml:space="preserve"/></g></g></g></svg>
